<svg width="375" height="536" viewBox="0 0 375 536" fill="none" xmlns="http://www.w3.org/2000/svg">
<path fill-rule="evenodd" clip-rule="evenodd" d="M338.569 2.56829C395.15 16.4241 446.301 54.5012 474.485 105.483C501.944 155.155 490.436 214.458 487.022 271.112C483.583 328.187 488.048 388.899 454.611 435.283C420.07 483.198 362.591 507.466 305.559 522.839C247.764 538.417 187.398 540.895 130.38 522.677C70.163 503.436 17.8005 467.023 -22.2384 418.103C-66.695 363.784 -103.474 301.48 -107.986 231.433C-112.894 155.252 -111.215 59.1767 -48.1305 16.1886C17.0316 -28.2155 103.159 36.6257 181.963 33.85C236.498 31.9292 285.566 -10.411 338.569 2.56829Z" fill="#FF9679"/>
</svg>
