<svg width="375" height="425" viewBox="0 0 375 425" fill="none" xmlns="http://www.w3.org/2000/svg">
<path fill-rule="evenodd" clip-rule="evenodd" d="M-202.687 128.425C-217.352 79.0248 -181.162 31.2758 -119.2 7.58973C-58.911 -15.4567 16.4454 21.278 96.9195 26.1393C171.032 30.6164 265.023 5.25448 330.874 34.7781C395.784 63.8796 423.879 112.813 443.134 156.501C459.085 192.694 439.78 224.114 428.933 257.27C418.919 287.881 442.28 372.656 406.579 392.889C369.79 413.738 293.409 405.613 239.442 410.564C171.996 416.751 60.753 438.896 -4.19249 411.219C-69.6229 383.335 -8.89328 289.838 -47.6212 248.711C-89.448 204.292 -188.806 175.187 -202.687 128.425Z" fill="#FF9679"/>
</svg>
