<svg width="178" height="93" viewBox="0 0 178 93" fill="none" xmlns="http://www.w3.org/2000/svg">
<path d="M2.65713 35V0.823999H9.90513C12.7211 0.823999 14.8491 1.592 16.2891 3.128C17.7611 4.664 18.4971 6.84 18.4971 9.656V25.64C18.4971 28.84 17.7131 31.208 16.1451 32.744C14.6091 34.248 12.3851 35 9.47313 35H2.65713ZM7.55313 5.432V30.392H9.80913C11.1851 30.392 12.1611 30.056 12.7371 29.384C13.3131 28.68 13.6011 27.592 13.6011 26.12V9.656C13.6011 8.312 13.3291 7.272 12.7851 6.536C12.2411 5.8 11.2491 5.432 9.80913 5.432H7.55313ZM30.4386 35V0.823999H35.3346V35H30.4386ZM47.0035 8.888C47.0035 7.512 47.2435 6.296 47.7235 5.24C48.2035 4.184 48.8435 3.304 49.6435 2.6C50.4115 1.928 51.2755 1.416 52.2355 1.064C53.2275 0.711998 54.2195 0.535997 55.2115 0.535997C56.2035 0.535997 57.1795 0.711998 58.1395 1.064C59.1315 1.416 60.0275 1.928 60.8275 2.6C61.5955 3.304 62.2195 4.184 62.6995 5.24C63.1795 6.296 63.4195 7.512 63.4195 8.888V10.616H58.5235V8.888C58.5235 7.704 58.1875 6.84 57.5155 6.296C56.8755 5.72 56.1075 5.432 55.2115 5.432C54.3155 5.432 53.5315 5.72 52.8595 6.296C52.2195 6.84 51.8995 7.704 51.8995 8.888V26.936C51.8995 28.12 52.2195 29 52.8595 29.576C53.5315 30.12 54.3155 30.392 55.2115 30.392C56.1075 30.392 56.8755 30.12 57.5155 29.576C58.1875 29 58.5235 28.12 58.5235 26.936V20.504H54.6355V16.184H63.4195V26.936C63.4195 28.376 63.1795 29.608 62.6995 30.632C62.2195 31.656 61.5955 32.504 60.8275 33.176C60.0275 33.88 59.1315 34.408 58.1395 34.76C57.1795 35.112 56.2035 35.288 55.2115 35.288C54.2195 35.288 53.2275 35.112 52.2355 34.76C51.2755 34.408 50.4115 33.88 49.6435 33.176C48.8435 32.504 48.2035 31.656 47.7235 30.632C47.2435 29.608 47.0035 28.376 47.0035 26.936V8.888ZM75.073 35V0.823999H79.969V35H75.073ZM95.1419 35V5.432H89.4779V0.823999H105.702V5.432H100.038V35H95.1419ZM122.326 23.048L119.926 10.664H119.83L117.43 23.048H122.326ZM110.23 35L117.862 0.823999H121.942L129.574 35H124.678L123.238 27.656H116.566L115.126 35H110.23ZM139.185 35V0.823999H144.081V30.104H153.777V35H139.185Z" fill="#1A1A1A"/>
<path d="M170.265 24.7451L166.395 25.4951L166.395 25.5251L170.265 26.2751L170.265 24.7451ZM174 28.5251L163.32 26.1401L163.32 24.8651L174 22.4801L174 24.0101L171.705 24.4601L171.705 26.5451L174 26.9951L174 28.5251ZM174 19.3117L163.32 19.3117L163.32 17.8417L169.755 15.5317L169.755 15.5017L163.32 15.5017L163.32 13.9717L174 13.9717L174 15.4117L167.58 17.7517L167.58 17.7817L174 17.7817L174 19.3117ZM174 10.1116L163.32 10.1116L163.32 7.84664C163.32 6.96664 163.56 6.30164 164.04 5.85164C164.52 5.39164 165.2 5.16164 166.08 5.16164L171.075 5.16164C172.075 5.16164 172.815 5.40664 173.295 5.89664C173.765 6.37664 174 7.07164 174 7.98164L174 10.1116ZM164.76 8.58164L172.56 8.58164L172.56 7.87664C172.56 7.44664 172.455 7.14164 172.245 6.96164C172.025 6.78164 171.685 6.69164 171.225 6.69164L166.08 6.69164C165.66 6.69164 165.335 6.77664 165.105 6.94664C164.875 7.11664 164.76 7.42664 164.76 7.87664L164.76 8.58164Z" fill="#1A1A1A"/>
<path d="M2.55106 79V44.824H7.25506L14.6471 65.416H14.7431V44.824H19.6391V79H15.0311L7.54306 58.456H7.44706V79H2.55106ZM33.6232 52.888C33.6232 51.512 33.8632 50.296 34.3432 49.24C34.8232 48.184 35.4632 47.304 36.2632 46.6C37.0312 45.928 37.8952 45.416 38.8552 45.064C39.8472 44.712 40.8392 44.536 41.8312 44.536C42.8232 44.536 43.7992 44.712 44.7592 45.064C45.7512 45.416 46.6472 45.928 47.4472 46.6C48.2152 47.304 48.8392 48.184 49.3192 49.24C49.7992 50.296 50.0392 51.512 50.0392 52.888V70.936C50.0392 72.376 49.7992 73.608 49.3192 74.632C48.8392 75.656 48.2152 76.504 47.4472 77.176C46.6472 77.88 45.7512 78.408 44.7592 78.76C43.7992 79.112 42.8232 79.288 41.8312 79.288C40.8392 79.288 39.8472 79.112 38.8552 78.76C37.8952 78.408 37.0312 77.88 36.2632 77.176C35.4632 76.504 34.8232 75.656 34.3432 74.632C33.8632 73.608 33.6232 72.376 33.6232 70.936V52.888ZM38.5192 70.936C38.5192 72.12 38.8392 73 39.4792 73.576C40.1512 74.12 40.9352 74.392 41.8312 74.392C42.7272 74.392 43.4952 74.12 44.1352 73.576C44.8072 73 45.1432 72.12 45.1432 70.936V52.888C45.1432 51.704 44.8072 50.84 44.1352 50.296C43.4952 49.72 42.7272 49.432 41.8312 49.432C40.9352 49.432 40.1512 49.72 39.4792 50.296C38.8392 50.84 38.5192 51.704 38.5192 52.888V70.936ZM64.1887 79V44.824H68.8927L75.1807 62.92H75.2767L81.5167 44.824H86.2687V79H81.3727V58.216H81.2767L76.4287 72.904H73.9807L69.1807 58.216H69.0847V79H64.1887ZM110.589 67.048L108.189 54.664H108.093L105.693 67.048H110.589ZM98.4926 79L106.125 44.824H110.205L117.837 79H112.941L111.501 71.656H104.829L103.389 79H98.4926ZM130.087 79V44.824H137.335C140.151 44.824 142.279 45.592 143.719 47.128C145.191 48.664 145.927 50.84 145.927 53.656V69.64C145.927 72.84 145.143 75.208 143.575 76.744C142.039 78.248 139.815 79 136.903 79H130.087ZM134.983 49.432V74.392H137.239C138.615 74.392 139.591 74.056 140.167 73.384C140.743 72.68 141.031 71.592 141.031 70.12V53.656C141.031 52.312 140.759 51.272 140.215 50.536C139.671 49.8 138.679 49.432 137.239 49.432H134.983ZM176.205 54.664H171.309V53.56C171.309 52.44 171.037 51.48 170.493 50.68C169.981 49.848 169.101 49.432 167.853 49.432C167.181 49.432 166.637 49.56 166.221 49.816C165.805 50.072 165.469 50.392 165.213 50.776C164.957 51.192 164.781 51.672 164.685 52.216C164.589 52.728 164.541 53.272 164.541 53.848C164.541 54.52 164.557 55.08 164.589 55.528C164.653 55.976 164.781 56.376 164.973 56.728C165.165 57.08 165.437 57.384 165.789 57.64C166.173 57.896 166.685 58.152 167.325 58.408L171.069 59.896C172.157 60.312 173.037 60.808 173.709 61.384C174.381 61.928 174.909 62.568 175.293 63.304C175.645 64.072 175.885 64.952 176.013 65.944C176.141 66.904 176.205 68.008 176.205 69.256C176.205 70.696 176.061 72.04 175.773 73.288C175.485 74.504 175.021 75.544 174.381 76.408C173.709 77.304 172.829 78.008 171.741 78.52C170.653 79.032 169.325 79.288 167.757 79.288C166.573 79.288 165.469 79.08 164.445 78.664C163.421 78.248 162.541 77.672 161.805 76.936C161.069 76.2 160.477 75.352 160.029 74.392C159.613 73.4 159.405 72.328 159.405 71.176V69.352H164.301V70.888C164.301 71.784 164.557 72.6 165.069 73.336C165.613 74.04 166.509 74.392 167.757 74.392C168.589 74.392 169.229 74.28 169.677 74.056C170.157 73.8 170.525 73.448 170.781 73C171.037 72.552 171.181 72.024 171.213 71.416C171.277 70.776 171.309 70.072 171.309 69.304C171.309 68.408 171.277 67.672 171.213 67.096C171.149 66.52 171.021 66.056 170.829 65.704C170.605 65.352 170.301 65.064 169.917 64.84C169.565 64.616 169.085 64.376 168.477 64.12L164.973 62.68C162.861 61.816 161.437 60.68 160.701 59.272C159.997 57.832 159.645 56.04 159.645 53.896C159.645 52.616 159.821 51.4 160.173 50.248C160.525 49.096 161.053 48.104 161.757 47.272C162.429 46.44 163.277 45.784 164.301 45.304C165.357 44.792 166.605 44.536 168.045 44.536C169.261 44.536 170.365 44.76 171.357 45.208C172.381 45.656 173.261 46.248 173.997 46.984C175.469 48.52 176.205 50.28 176.205 52.264V54.664Z" fill="#1A1A1A"/>
</svg>
