<svg width="85" height="69" viewBox="0 0 85 69" fill="none" xmlns="http://www.w3.org/2000/svg">
<path fill-rule="evenodd" clip-rule="evenodd" d="M61.9589 33.3018C61.5626 33.3018 61.3644 33.1036 61.1662 32.7073C61.1662 32.3109 61.3644 32.1128 61.7608 31.9146C61.7608 31.9146 65.1296 31.3201 64.9315 29.1402C64.7333 26.3659 61.7608 16.8538 61.7608 16.8538C61.7608 16.4574 61.7608 16.2593 62.1571 16.0611C62.3553 16.0611 62.5534 16.0611 62.5534 16.0611C62.9498 16.2593 67.7058 18.2409 69.8857 20.8171C71.0747 22.2043 71.6692 22.997 72.0655 23.7897C72.4619 24.5824 72.4619 25.5732 72.2637 26.7622C72.0655 27.5549 72.0655 28.3476 72.2637 28.9421C72.2637 29.3384 72.4619 29.7348 72.6601 29.9329C72.8582 30.1311 73.0564 30.3293 73.2546 30.3293C73.4527 30.3293 73.6509 30.3293 73.8491 30.3293C74.2454 30.1311 74.8399 30.1311 75.2363 29.9329C77.0198 29.3384 78.6051 28.9421 79.7941 29.9329C80.3887 30.3293 80.785 30.7256 81.3795 31.1219C81.7758 31.5183 82.1722 31.7164 82.5685 31.9146C83.3612 32.3109 84.1539 32.3109 84.1539 32.3109C84.5502 32.3109 84.7484 32.7073 84.7484 32.9055C84.7484 33.1036 84.7484 33.1036 84.5502 33.3018C84.352 33.5 82.7667 35.0853 81.1813 34.689C80.5868 34.4908 79.596 34.2926 78.6051 34.0945C77.8124 33.8963 77.2179 33.8963 77.0198 34.0945C76.6234 34.4908 73.6509 36.8688 70.6784 37.8597C68.8948 38.4542 67.1113 38.8505 65.526 38.0579C64.5351 37.6615 63.5443 37.2652 62.5534 36.8688C59.3827 35.4817 56.212 33.8963 54.6267 34.689C54.2303 34.8871 54.0322 34.689 53.834 34.2926C53.6358 33.8963 53.834 33.6981 54.2303 33.5C56.4102 32.5091 59.7791 34.0945 63.1479 35.6798C64.1388 36.0762 65.1296 36.6707 65.9223 36.8688C67.1113 37.2652 68.6967 37.067 70.0839 36.4725C72.8582 35.4817 75.6326 33.3018 76.0289 32.9055C76.6234 32.5091 77.6143 32.5091 78.6051 32.7073C79.596 32.9055 80.5868 33.1036 81.1813 33.3018C81.5777 33.5 81.974 33.3018 82.3703 32.9055C82.1722 32.9055 81.974 32.7073 81.7758 32.7073C81.3795 32.5091 80.785 32.1128 80.3886 31.9146C79.7941 31.5183 79.3978 31.1219 78.8033 30.7256C78.2088 30.1311 76.8216 30.5274 75.4344 30.9238C75.0381 31.1219 74.4436 31.1219 74.0472 31.3201C73.6509 31.5183 73.2546 31.5183 72.8582 31.3201C72.2637 31.1219 71.8674 30.9238 71.471 30.5274C71.0747 30.1311 70.8765 29.5366 70.6784 28.9421C70.4802 28.1494 70.4802 27.1586 70.6784 26.1677C70.8765 25.1769 70.8765 24.5824 70.6784 23.7897C70.4802 23.1952 69.6875 22.4025 68.6967 21.2135C67.3095 19.6281 64.5351 18.2409 62.9498 17.4483C63.7424 20.2226 65.526 26.564 65.7241 28.7439C66.5168 32.7073 61.9589 33.3018 61.9589 33.3018ZM30.2519 16.0611C30.2519 16.0611 36.1969 17.4483 37.7823 13.6831L37.9805 13.0885C39.1695 10.3142 39.764 9.12517 41.5475 7.93615C42.5383 7.14347 43.5292 6.54897 43.9255 6.3508C44.3219 7.34164 45.1145 9.71967 44.52 11.5032C44.1237 12.8904 43.7274 13.6831 43.331 14.2776C42.9347 15.0702 42.5383 15.6647 42.7365 16.2593C42.7365 16.4574 42.7365 16.6556 42.9347 16.6556C43.1329 17.0519 43.5292 17.2501 44.1237 17.4483C44.52 17.8446 44.9164 17.8446 45.5109 17.6464C46.1054 17.6464 46.5017 17.4483 47.0962 17.2501C47.6907 16.8538 48.4834 16.6556 49.0779 16.4574C49.6724 16.4574 50.0688 16.4574 50.4651 16.8538C50.4651 17.0519 50.6633 17.0519 50.8615 17.2501C51.8523 18.4391 52.8431 19.43 53.834 19.6281C53.4377 19.8263 52.8431 19.8263 51.6541 19.43C50.6633 19.0336 49.4743 18.8355 48.4834 18.8355C47.4926 18.8355 46.5017 19.0336 45.9072 19.43C44.9164 20.0245 40.953 20.2226 40.953 20.2226C40.5567 20.2226 40.3585 20.619 40.3585 20.8171C40.3585 21.0153 40.1603 22.997 38.9713 25.375C37.9805 27.1586 35.6024 28.7439 34.2152 29.7348C34.2152 27.3567 34.4134 22.0062 36.5933 19.43C36.7914 19.2318 36.7914 18.8355 36.5933 18.6373C36.3951 18.4391 35.9988 18.4391 35.8006 18.6373C33.0262 22.0062 33.2244 30.1311 33.2244 30.7256C33.2244 30.9238 33.2244 30.9238 33.2244 31.1219C33.4226 31.5183 33.8189 31.5183 34.0171 31.3201C34.0171 31.3201 38.7731 28.7439 40.1603 25.9695C41.1512 23.9878 41.5475 22.4025 41.5475 21.4116C42.7365 21.4116 45.5109 21.0153 46.5017 20.4208C46.8981 20.2226 47.4926 20.0245 48.2853 20.0245C49.2761 20.0245 50.2669 20.2226 51.0596 20.619C53.0413 21.4116 53.6358 21.0153 54.4285 20.8171C54.4285 20.8171 54.4285 20.8171 54.6267 20.8171C54.8248 20.619 55.023 20.619 55.2212 20.4208C55.4193 20.2226 55.4193 20.0245 55.4193 19.6281C55.4193 19.43 55.2212 19.2318 55.023 19.0336C54.8248 18.8355 54.4285 18.6373 54.0322 18.6373C53.4376 18.4391 52.645 17.6464 51.8523 16.6556C51.6541 16.4574 51.6541 16.4574 51.456 16.2593C50.6633 15.4666 49.8706 15.2684 48.8798 15.4666C48.0871 15.6647 47.2944 15.8629 46.5017 16.4574C46.1054 16.6556 45.7091 16.6556 45.3127 16.8538C44.9164 16.8538 44.52 16.8538 44.3219 16.8538C44.1237 16.8538 43.9255 16.6556 43.9255 16.6556C43.9255 16.4574 44.1237 16.0611 44.3219 15.4666C44.7182 14.6739 45.3127 13.8812 45.7091 12.2959C46.6999 9.32333 44.9164 5.55812 44.9164 5.55812C44.7182 5.16178 44.3219 5.16178 44.1237 5.35995C44.1237 5.35995 42.9347 5.95446 40.953 7.34164C38.9713 8.72883 38.3768 10.116 36.9896 13.0885L36.7914 13.6831C35.4043 16.0611 30.6482 14.8721 30.6482 14.8721C30.2519 14.8721 30.0537 15.0702 29.8555 15.2684C29.6574 15.6647 30.0537 16.0611 30.2519 16.0611ZM31.2427 47.7681C31.2427 47.7681 35.2061 49.948 38.575 47.57C40.1603 46.5791 41.5475 45.5883 42.9347 44.9938C44.1237 44.5974 45.5109 44.3993 46.6999 45.1919C48.2852 46.1828 49.0779 46.5791 49.8706 46.7773C50.6633 46.9755 51.2578 46.7773 52.0505 46.5791C52.2486 46.5791 52.2486 46.5791 52.4468 46.5791C53.6358 46.1828 54.6267 45.9846 55.4193 46.7773L55.6175 46.9755C56.8065 47.9663 57.401 48.759 59.1846 48.9572C59.7791 49.1553 60.3736 49.1553 60.7699 49.1553C60.3736 49.3535 59.5809 49.7498 58.3919 49.5517C57.7974 49.5517 57.2029 49.5517 56.4102 49.3535C53.2395 49.1553 49.4743 48.759 48.6816 49.5517C48.2852 49.948 48.2853 50.5425 48.0871 51.5333C47.8889 52.9205 47.2944 54.9022 45.9072 57.8748C44.3219 61.0455 42.5383 62.6308 41.5475 63.2253C41.3493 60.8473 40.7548 53.9114 43.5292 50.9388C43.7274 50.7407 43.7274 50.3443 43.5292 50.1462C43.331 49.948 42.9347 49.948 42.7365 50.1462C39.1695 54.3077 40.5567 64.4143 40.5567 64.4143C40.5567 64.4143 40.5567 64.4143 40.5567 64.6125C40.7548 65.0088 40.953 65.0088 41.3493 65.0088C41.3493 65.0088 44.7182 63.6217 47.0962 58.6674C48.6816 55.6949 49.0779 53.515 49.2761 52.1279C49.4743 51.3352 49.4743 50.9388 49.6724 50.7407C50.0688 50.3443 53.4377 50.7407 56.212 50.9388C56.8065 50.9388 57.5992 51.137 58.1937 51.137C60.1754 51.3352 61.3644 50.7407 61.9589 50.1462C62.1571 49.948 62.3553 49.7498 62.3553 49.5517C62.5534 49.3535 62.5534 49.1553 62.5534 48.9572C62.5534 48.759 62.3553 48.5608 61.9589 48.3626C61.7607 48.3626 61.5626 48.3626 61.1662 48.3626C60.7699 48.3626 60.1754 48.3626 59.3827 48.1645C58.1937 47.9663 57.401 47.3718 56.6084 46.381L56.4102 45.7864C55.2212 44.5974 53.6358 44.9938 52.2486 45.3901H51.8523C51.2578 45.5883 50.8615 45.5883 50.2669 45.5883C49.6724 45.3901 48.8798 44.9938 47.4926 44.2011C45.9072 43.2102 44.1237 43.2102 42.5383 43.8048C40.953 44.3993 39.5658 45.3901 37.9805 46.5791C35.2061 48.5608 32.0354 46.7773 32.0354 46.7773C31.6391 46.5791 31.4409 46.7773 31.2427 46.9755C30.8464 47.3718 31.0445 47.7681 31.2427 47.7681ZM0.328338 4.36911C-0.0680004 4.17094 -0.0680012 3.7746 0.130168 3.57643C0.328337 3.18009 0.724674 3.18009 0.922843 3.37826C0.922843 3.37826 4.29172 5.16178 6.86792 3.18009C8.45327 1.99108 9.84045 1.00023 11.4258 0.405726C13.0112 -0.188781 14.5965 -0.188781 16.38 0.802065C17.7672 1.59474 18.5599 1.99108 19.1544 2.18925C19.7489 2.38742 20.1452 2.18925 20.7398 1.99108H21.1361C22.5233 1.59474 24.1086 1.1984 25.2976 2.38742L25.4958 2.58559C26.4867 3.37826 27.0812 3.97277 28.2702 4.36911C29.0629 4.56728 29.6574 4.56728 30.0537 4.56728C30.45 4.56728 30.6482 4.56728 30.8464 4.56728C31.0445 4.56728 31.2427 4.76545 31.4409 5.16178C31.4409 5.35995 31.4409 5.55812 31.2427 5.75629C31.2427 5.95446 31.0445 6.15263 30.8464 6.3508C30.2519 6.94531 29.0629 7.53981 27.0812 7.34164C26.4867 7.34164 25.8921 7.14348 25.0995 7.14348C22.3251 6.94531 18.7581 6.54897 18.5599 6.94531C18.3617 7.14348 18.3617 7.53981 18.1636 8.33249C17.9654 9.71967 17.3709 11.8995 15.9837 14.8721C13.6057 19.8263 10.2368 21.2135 10.2368 21.2135C9.84045 21.4116 9.64228 21.2135 9.44411 20.8171C9.44411 20.8171 9.44411 20.8171 9.44411 20.619C9.44411 20.619 7.85876 10.5123 11.624 6.3508C11.8221 6.15263 12.2185 6.15263 12.4166 6.3508C12.6148 6.54897 12.6148 6.94531 12.4166 7.14348C9.84045 10.116 10.2368 17.0519 10.435 19.43C11.4258 18.8355 13.2093 17.2501 14.7947 14.0794C16.1819 11.1069 16.5782 9.12517 16.9745 7.73798C17.1727 6.74714 17.3709 6.15263 17.569 5.75629C18.3617 4.96362 22.1269 5.16178 25.2976 5.55812C25.8921 5.95446 26.6848 5.95446 27.2793 5.95446C28.4683 5.95446 29.0629 5.75629 29.6574 5.55812C29.261 5.55812 28.8647 5.55812 28.072 5.35995C26.4867 5.16178 25.694 4.36911 24.505 3.37826L24.3068 3.18009C23.5141 2.38742 22.5233 2.78376 21.3343 2.98192C21.3343 2.98192 21.1361 2.98192 20.9379 2.98192C20.1452 3.18009 19.5507 3.37826 18.7581 3.18009C17.9654 2.98192 17.1727 2.58559 15.5874 1.59474C14.2002 0.802065 13.0112 0.802065 11.8221 1.39657C10.435 1.99108 9.04777 2.98192 7.46242 3.97277C4.29172 6.54897 0.328338 4.36911 0.328338 4.36911ZM11.2276 63.0272C10.8313 63.0272 10.6331 62.829 10.435 62.4326C10.435 62.0363 10.6331 61.8381 11.0295 61.64C11.0295 61.64 14.3983 61.0455 14.2002 58.8656C14.002 56.0912 11.0295 46.5791 11.0295 46.5791C10.8313 46.1828 11.0295 45.9846 11.4258 45.7864C11.624 45.7864 11.8221 45.7864 11.8221 45.7864C12.2185 45.9846 16.9745 47.9663 19.1544 50.5425C20.3434 51.9297 20.9379 52.7224 21.3343 53.515C21.7306 54.3077 21.7306 55.2986 21.5324 56.4876C21.3343 57.2803 21.3343 58.0729 21.5324 58.6674C21.7306 59.0638 21.7306 59.4601 21.9288 59.6583C22.1269 59.8565 22.3251 60.0546 22.5233 60.0546C22.7214 60.0546 22.9196 60.0546 23.1178 60.0546C23.5141 59.8564 24.1086 59.8565 24.505 59.6583C26.2885 59.0638 27.8738 58.6674 29.0629 59.6583C29.6574 60.0546 30.0537 60.451 30.6482 60.8473C31.0445 61.2436 31.4409 61.4418 31.8372 61.64C32.6299 62.0363 33.4226 62.0363 33.4226 62.0363C33.8189 62.0363 34.0171 62.4326 34.0171 62.6308C34.0171 62.829 34.0171 62.829 33.8189 63.0272C33.6207 63.2253 32.0354 64.8107 30.45 64.4143C29.8555 64.2162 28.8647 64.018 27.8738 63.8198C27.0812 63.6217 26.4867 63.6217 26.2885 63.8198C25.8921 64.2162 22.9196 66.5942 19.9471 67.585C18.1636 68.1795 16.38 68.5759 14.7947 67.7832C13.8038 67.3869 12.813 66.9905 11.8221 66.5942C8.65144 65.207 5.48073 63.6217 3.89538 64.4143C3.49904 64.6125 3.30087 64.4143 3.1027 64.018C2.90453 63.6217 3.1027 63.4235 3.49904 63.2253C5.6789 62.2345 9.04777 63.8198 12.4166 65.4052C13.4075 65.8015 14.3983 66.396 15.191 66.5942C16.38 66.9905 17.9654 66.7924 19.3526 66.1979C22.1269 65.207 24.9013 63.0272 25.2976 62.6308C25.8921 62.2345 26.883 62.2345 27.8738 62.4326C28.8647 62.6308 29.8555 62.829 30.45 63.0272C30.8464 63.2253 31.2427 63.0272 31.6391 62.6308C31.4409 62.6308 31.2427 62.4326 31.0445 62.4326C30.6482 62.2345 30.0537 62.0363 29.6574 61.64C29.261 61.2436 28.6665 60.8473 28.072 60.451C27.4775 59.8565 26.0903 60.2528 24.7031 60.6491C24.3068 60.8473 23.7123 60.8473 23.3159 61.0455C22.9196 61.2436 22.5233 61.2436 22.1269 61.0455C21.5324 60.8473 21.1361 60.6491 20.7398 60.2528C20.3434 59.8564 20.1452 59.2619 19.9471 58.6674C19.7489 57.8748 19.7489 56.8839 19.9471 55.8931C20.1452 54.9022 20.1452 54.3077 19.9471 53.515C19.7489 52.9205 18.9562 52.1279 17.9654 50.9388C16.5782 49.3535 13.8038 47.9663 12.2185 47.1736C13.0112 49.948 14.7947 56.2894 14.9928 58.4693C15.5874 62.4326 11.2276 63.0272 11.2276 63.0272Z" fill="#F2FFF7"/>
</svg>
