<svg width="258" height="92" viewBox="0 0 258 92" fill="none" xmlns="http://www.w3.org/2000/svg">
<path d="M82.7617 91.8132V86.0159H85.4439C85.7278 86.0159 85.9875 86.0704 86.2231 86.1792C86.4587 86.2827 86.6641 86.4242 86.8393 86.6038C87.0145 86.778 87.1504 86.9767 87.247 87.1999C87.3437 87.4176 87.392 87.6408 87.392 87.8694C87.392 88.1851 87.3135 88.4872 87.1564 88.7757C86.9994 89.0588 86.7789 89.2901 86.495 89.4698C86.211 89.644 85.8788 89.7311 85.4982 89.7311H83.5772V91.8132H82.7617ZM83.5772 89.0779H85.4529C85.6764 89.0779 85.8697 89.0234 86.0328 88.9146C86.202 88.8057 86.3319 88.6587 86.4225 88.4736C86.5191 88.2886 86.5674 88.0872 86.5674 87.8694C86.5674 87.6408 86.5131 87.4367 86.4043 87.257C86.2956 87.072 86.1537 86.9277 85.9785 86.8243C85.8033 86.7209 85.61 86.6692 85.3985 86.6692H83.5772V89.0779Z" fill="#1A1A1A"/>
<path d="M90.4008 91.8132V86.0159H91.2163V91.16H94.8046V91.8132H90.4008Z" fill="#1A1A1A"/>
<path d="M99.6431 86.0159H100.332L102.96 91.8132H102.09L101.329 90.1148H98.6283L97.8762 91.8132H97.0063L99.6431 86.0159ZM101.147 89.5433L99.9875 86.8651L98.7914 89.5433H101.147Z" fill="#1A1A1A"/>
<path d="M105.156 88.8737C105.156 88.5199 105.222 88.1743 105.355 87.8368C105.494 87.4938 105.694 87.1836 105.953 86.9059C106.219 86.6229 106.542 86.3997 106.923 86.2364C107.303 86.0677 107.735 85.9833 108.219 85.9833C108.793 85.9833 109.285 86.103 109.696 86.3425C110.106 86.5766 110.411 86.8787 110.611 87.2489L109.967 87.6245C109.841 87.3795 109.677 87.1863 109.478 87.0448C109.285 86.8978 109.073 86.7944 108.844 86.7345C108.62 86.6746 108.4 86.6447 108.182 86.6447C107.826 86.6447 107.509 86.71 107.231 86.8406C106.959 86.9713 106.73 87.1455 106.542 87.3632C106.355 87.5809 106.213 87.8259 106.116 88.098C106.026 88.3648 105.98 88.6342 105.98 88.9064C105.98 89.2058 106.035 89.4943 106.144 89.7719C106.258 90.0495 106.415 90.2945 106.615 90.5067C106.814 90.719 107.05 90.8878 107.322 91.013C107.593 91.1382 107.889 91.2008 108.21 91.2008C108.433 91.2008 108.663 91.1654 108.898 91.0946C109.134 91.0239 109.354 90.915 109.56 90.768C109.765 90.6156 109.928 90.4197 110.049 90.1801L110.729 90.5149C110.596 90.8034 110.39 91.0484 110.112 91.2498C109.835 91.4512 109.523 91.6036 109.179 91.707C108.841 91.8104 108.506 91.8622 108.173 91.8622C107.732 91.8622 107.328 91.7778 106.959 91.609C106.591 91.4349 106.27 91.2062 105.999 90.9232C105.733 90.6347 105.524 90.3135 105.373 89.9597C105.228 89.6004 105.156 89.2384 105.156 88.8737Z" fill="#1A1A1A"/>
<path d="M118.11 91.16V91.8132H113.743V86.0159H118.029V86.6692H114.558V88.5471H117.576V89.1595H114.558V91.16H118.11Z" fill="#1A1A1A"/>
<path d="M125.001 87.2325C124.85 87.0801 124.617 86.9413 124.303 86.8161C123.989 86.6909 123.639 86.6283 123.252 86.6283C122.757 86.6283 122.391 86.7127 122.156 86.8814C121.92 87.0502 121.802 87.2815 121.802 87.5755C121.802 87.7823 121.863 87.9456 121.984 88.0654C122.105 88.1851 122.289 88.2831 122.536 88.3593C122.79 88.4355 123.11 88.5145 123.497 88.5961C123.944 88.6832 124.331 88.7894 124.657 88.9146C124.983 89.0398 125.234 89.2085 125.409 89.4208C125.584 89.6276 125.672 89.9053 125.672 90.2536C125.672 90.6238 125.569 90.9286 125.364 91.1681C125.158 91.4076 124.877 91.5845 124.521 91.6989C124.17 91.8132 123.775 91.8703 123.334 91.8703C122.331 91.8703 121.458 91.5982 120.715 91.0538L121.105 90.4333C121.238 90.553 121.416 90.6728 121.639 90.7925C121.869 90.9123 122.129 91.013 122.419 91.0946C122.715 91.1708 123.026 91.209 123.352 91.209C123.811 91.209 124.167 91.1355 124.421 90.9885C124.675 90.8361 124.802 90.6156 124.802 90.3271C124.802 90.1094 124.729 89.9352 124.584 89.8046C124.445 89.6739 124.237 89.565 123.959 89.4779C123.681 89.3909 123.343 89.3038 122.944 89.2167C122.509 89.1187 122.144 89.0125 121.848 88.8982C121.552 88.7785 121.328 88.6233 121.177 88.4328C121.032 88.2423 120.96 87.9946 120.96 87.6898C120.96 87.3196 121.059 87.0066 121.259 86.7508C121.458 86.495 121.733 86.3017 122.083 86.1711C122.434 86.0404 122.829 85.9751 123.27 85.9751C123.699 85.9751 124.089 86.035 124.439 86.1548C124.796 86.2745 125.11 86.4351 125.382 86.6365L125.001 87.2325Z" fill="#1A1A1A"/>
<path d="M133.023 91.8132V86.0159H137.273V86.6692H133.839V88.6043H136.729V89.2167H133.839V91.8132H133.023Z" fill="#1A1A1A"/>
<path d="M142.794 91.854C142.341 91.854 141.93 91.7723 141.562 91.609C141.193 91.4457 140.873 91.2253 140.601 90.9477C140.335 90.6646 140.13 90.3489 139.985 90.0005C139.84 89.6467 139.767 89.2847 139.767 88.9146C139.767 88.5281 139.843 88.1606 139.994 87.8123C140.151 87.4584 140.366 87.1454 140.637 86.8733C140.915 86.5957 141.238 86.3779 141.607 86.2201C141.975 86.0568 142.377 85.9751 142.812 85.9751C143.265 85.9751 143.676 86.0595 144.044 86.2282C144.413 86.397 144.73 86.6229 144.996 86.9059C145.262 87.189 145.467 87.5047 145.612 87.8531C145.757 88.2015 145.829 88.558 145.829 88.9227C145.829 89.3092 145.754 89.6794 145.603 90.0332C145.452 90.3816 145.237 90.6945 144.96 90.9722C144.688 91.2443 144.368 91.4593 143.999 91.6172C143.631 91.7751 143.229 91.854 142.794 91.854ZM140.592 88.9146C140.592 89.2085 140.643 89.4943 140.746 89.7719C140.855 90.0441 141.006 90.2863 141.199 90.4986C141.392 90.7109 141.625 90.8796 141.897 91.0048C142.169 91.13 142.471 91.1926 142.803 91.1926C143.147 91.1926 143.455 91.1273 143.727 90.9967C143.999 90.866 144.229 90.6918 144.416 90.4741C144.609 90.2564 144.754 90.0114 144.851 89.7392C144.954 89.4671 145.005 89.1922 145.005 88.9146C145.005 88.6206 144.951 88.3376 144.842 88.0654C144.739 87.7932 144.588 87.551 144.389 87.3387C144.195 87.121 143.963 86.9522 143.691 86.8325C143.425 86.7073 143.129 86.6447 142.803 86.6447C142.459 86.6447 142.151 86.71 141.879 86.8406C141.607 86.9658 141.374 87.1373 141.181 87.355C140.994 87.5728 140.849 87.8177 140.746 88.0899C140.643 88.3566 140.592 88.6315 140.592 88.9146Z" fill="#1A1A1A"/>
<path d="M153.392 86.6692H151.172V91.8132H150.356V86.6692H148.136V86.0159H153.392V86.6692Z" fill="#1A1A1A"/>
<path d="M160.323 91.8132V86.0159H162.552C163.241 86.0159 163.815 86.1466 164.274 86.4079C164.739 86.6637 165.086 87.0121 165.316 87.453C165.545 87.8885 165.66 88.3729 165.66 88.9064C165.66 89.4943 165.533 90.006 165.279 90.4414C165.026 90.8769 164.666 91.2144 164.201 91.4539C163.736 91.6934 163.186 91.8132 162.552 91.8132H160.323ZM164.835 88.9064C164.835 88.4709 164.745 88.0844 164.564 87.7469C164.388 87.4095 164.132 87.1454 163.793 86.9549C163.455 86.7644 163.041 86.6692 162.552 86.6692H161.138V91.16H162.552C163.047 91.16 163.464 91.062 163.802 90.866C164.141 90.6646 164.398 90.3952 164.573 90.0577C164.748 89.7147 164.835 89.331 164.835 88.9064Z" fill="#1A1A1A"/>
<path d="M168.803 91.8132V86.0159H169.618V91.8132H168.803Z" fill="#1A1A1A"/>
<path d="M175.732 91.854C175.31 91.854 174.914 91.7723 174.545 91.609C174.183 91.4403 173.866 91.2171 173.594 90.9395C173.322 90.6564 173.111 90.3407 172.96 89.9924C172.809 89.6385 172.733 89.2738 172.733 88.8982C172.733 88.5063 172.809 88.1361 172.96 87.7878C173.111 87.4339 173.319 87.121 173.585 86.8488C173.857 86.5766 174.174 86.3643 174.536 86.2119C174.905 86.054 175.304 85.9751 175.732 85.9751C176.355 85.9751 176.868 86.0922 177.273 86.3262C177.678 86.5603 177.983 86.8651 178.188 87.2407L177.563 87.6326C177.376 87.2951 177.119 87.0447 176.793 86.8814C176.466 86.7181 176.107 86.6365 175.714 86.6365C175.388 86.6365 175.092 86.6991 174.826 86.8243C174.56 86.9495 174.331 87.121 174.138 87.3387C173.95 87.551 173.805 87.7932 173.703 88.0654C173.606 88.3376 173.558 88.6206 173.558 88.9146C173.558 89.3283 173.654 89.7093 173.848 90.0577C174.047 90.4006 174.316 90.6755 174.654 90.8823C174.992 91.0892 175.373 91.1926 175.796 91.1926C176.14 91.1926 176.469 91.1191 176.784 90.9722C177.104 90.8197 177.406 90.5884 177.69 90.2781V89.4779H176.303V88.9227H178.378V91.8132H177.69V91.0293C177.134 91.5791 176.481 91.854 175.732 91.854Z" fill="#1A1A1A"/>
<path d="M186.181 86.6692H183.961V91.8132H183.145V86.6692H180.925V86.0159H186.181V86.6692Z" fill="#1A1A1A"/>
<path d="M190.447 86.0159H191.136L193.764 91.8132H192.894L192.133 90.1148H189.432L188.68 91.8132H187.81L190.447 86.0159ZM191.951 89.5433L190.792 86.8651L189.596 89.5433H191.951Z" fill="#1A1A1A"/>
<path d="M196.616 91.8132V86.0159H197.431V91.16H201.02V91.8132H196.616Z" fill="#1A1A1A"/>
<path d="M208.727 87.3714V91.8132H207.912V86.0159H208.601L212.533 90.5476V86.0241H213.349V91.8132H212.606L208.727 87.3714Z" fill="#1A1A1A"/>
<path d="M219.488 91.854C219.035 91.854 218.624 91.7723 218.256 91.609C217.887 91.4457 217.567 91.2253 217.295 90.9477C217.029 90.6646 216.824 90.3489 216.679 90.0005C216.534 89.6467 216.462 89.2847 216.462 88.9146C216.462 88.5281 216.537 88.1606 216.688 87.8123C216.845 87.4584 217.06 87.1454 217.331 86.8733C217.609 86.5957 217.932 86.3779 218.301 86.2201C218.669 86.0568 219.071 85.9751 219.506 85.9751C219.959 85.9751 220.37 86.0595 220.738 86.2282C221.107 86.397 221.424 86.6229 221.69 86.9059C221.956 87.189 222.161 87.5047 222.306 87.8531C222.451 88.2015 222.524 88.558 222.524 88.9227C222.524 89.3092 222.448 89.6794 222.297 90.0332C222.146 90.3816 221.932 90.6945 221.654 90.9722C221.382 91.2443 221.062 91.4593 220.693 91.6172C220.325 91.7751 219.923 91.854 219.488 91.854ZM217.286 88.9146C217.286 89.2085 217.337 89.4943 217.44 89.7719C217.549 90.0441 217.7 90.2863 217.893 90.4986C218.087 90.7109 218.319 90.8796 218.591 91.0048C218.863 91.13 219.165 91.1926 219.497 91.1926C219.841 91.1926 220.149 91.1273 220.421 90.9967C220.693 90.866 220.923 90.6918 221.11 90.4741C221.303 90.2564 221.448 90.0114 221.545 89.7392C221.648 89.4671 221.699 89.1922 221.699 88.9146C221.699 88.6206 221.645 88.3376 221.536 88.0654C221.433 87.7932 221.282 87.551 221.083 87.3387C220.889 87.121 220.657 86.9522 220.385 86.8325C220.119 86.7073 219.823 86.6447 219.497 86.6447C219.153 86.6447 218.845 86.71 218.573 86.8406C218.301 86.9658 218.068 87.1373 217.875 87.355C217.688 87.5728 217.543 87.8177 217.44 88.0899C217.337 88.3566 217.286 88.6315 217.286 88.9146Z" fill="#1A1A1A"/>
<path d="M231.214 91.8132V87.3877L229.093 90.7925H228.595L226.466 87.3877V91.8132H225.65V86.0159H226.511L228.84 89.7801L231.177 86.0159H232.029V91.8132H231.214Z" fill="#1A1A1A"/>
<path d="M237.521 86.0159H238.209L240.837 91.8132H239.967L239.206 90.1148H236.506L235.754 91.8132H234.884L237.521 86.0159ZM239.025 89.5433L237.865 86.8651L236.669 89.5433H239.025Z" fill="#1A1A1A"/>
<path d="M243.689 91.8132V86.0159H245.918C246.607 86.0159 247.181 86.1466 247.64 86.4079C248.105 86.6637 248.452 87.0121 248.682 87.453C248.911 87.8885 249.026 88.3729 249.026 88.9064C249.026 89.4943 248.899 90.006 248.646 90.4414C248.392 90.8769 248.032 91.2144 247.567 91.4539C247.102 91.6934 246.552 91.8132 245.918 91.8132H243.689ZM248.202 88.9064C248.202 88.4709 248.111 88.0844 247.93 87.7469C247.755 87.4095 247.498 87.1454 247.16 86.9549C246.821 86.7644 246.407 86.6692 245.918 86.6692H244.505V91.16H245.918C246.413 91.16 246.83 91.062 247.169 90.866C247.507 90.6646 247.764 90.3952 247.939 90.0577C248.114 89.7147 248.202 89.331 248.202 88.9064Z" fill="#1A1A1A"/>
<path d="M255.947 87.2325C255.796 87.0801 255.564 86.9413 255.25 86.8161C254.935 86.6909 254.585 86.6283 254.199 86.6283C253.703 86.6283 253.338 86.7127 253.102 86.8814C252.867 87.0502 252.749 87.2815 252.749 87.5755C252.749 87.7823 252.809 87.9456 252.93 88.0654C253.051 88.1851 253.235 88.2831 253.483 88.3593C253.736 88.4355 254.057 88.5145 254.443 88.5961C254.89 88.6832 255.277 88.7894 255.603 88.9146C255.929 89.0398 256.18 89.2085 256.355 89.4208C256.53 89.6276 256.618 89.9053 256.618 90.2536C256.618 90.6238 256.515 90.9286 256.31 91.1681C256.104 91.4076 255.824 91.5845 255.467 91.6989C255.117 91.8132 254.721 91.8703 254.28 91.8703C253.277 91.8703 252.404 91.5982 251.661 91.0538L252.051 90.4333C252.184 90.553 252.362 90.6728 252.586 90.7925C252.815 90.9123 253.075 91.013 253.365 91.0946C253.661 91.1708 253.972 91.209 254.298 91.209C254.757 91.209 255.114 91.1355 255.367 90.9885C255.621 90.8361 255.748 90.6156 255.748 90.3271C255.748 90.1094 255.676 89.9352 255.531 89.8046C255.392 89.6739 255.183 89.565 254.905 89.4779C254.627 89.3909 254.289 89.3038 253.89 89.2167C253.455 89.1187 253.09 89.0125 252.794 88.8982C252.498 88.7785 252.275 88.6233 252.123 88.4328C251.978 88.2423 251.906 87.9946 251.906 87.6898C251.906 87.3196 252.006 87.0066 252.205 86.7508C252.404 86.495 252.679 86.3017 253.03 86.1711C253.38 86.0404 253.776 85.9751 254.217 85.9751C254.646 85.9751 255.035 86.035 255.386 86.1548C255.742 86.2745 256.056 86.4351 256.328 86.6365L255.947 87.2325Z" fill="#1A1A1A"/>
<path d="M84.2966 32.3406V1.54467H91.5446C94.3606 1.54467 96.4886 2.23672 97.9286 3.62081C99.4006 5.00489 100.137 6.96568 100.137 9.50318V23.9063C100.137 26.7899 99.3526 28.9237 97.7846 30.3078C96.2486 31.663 94.0246 32.3406 91.1126 32.3406H84.2966ZM89.1926 5.69694V28.1884H91.4486C92.8246 28.1884 93.8006 27.8856 94.3766 27.2801C94.9526 26.6457 95.2406 25.6653 95.2406 24.3389V9.50318C95.2406 8.2921 94.9686 7.35496 94.4246 6.69175C93.8806 6.02854 92.8886 5.69694 91.4486 5.69694H89.1926Z" fill="#1A1A1A"/>
<path d="M112.078 32.3406V1.54467H116.974V32.3406H112.078Z" fill="#1A1A1A"/>
<path d="M128.643 8.81114C128.643 7.57122 128.883 6.47549 129.363 5.52393C129.843 4.57237 130.483 3.7794 131.283 3.14503C132.051 2.53949 132.915 2.07812 133.875 1.76094C134.867 1.44375 135.859 1.28516 136.851 1.28516C137.843 1.28516 138.819 1.44375 139.779 1.76094C140.771 2.07812 141.667 2.53949 142.467 3.14503C143.235 3.7794 143.859 4.57237 144.339 5.52393C144.819 6.47549 145.059 7.57122 145.059 8.81114V10.3682H140.163V8.81114C140.163 7.74423 139.827 6.96568 139.155 6.47549C138.515 5.95645 137.747 5.69694 136.851 5.69694C135.955 5.69694 135.171 5.95645 134.499 6.47549C133.859 6.96568 133.539 7.74423 133.539 8.81114V25.0742C133.539 26.1411 133.859 26.934 134.499 27.4531C135.171 27.9433 135.955 28.1884 136.851 28.1884C137.747 28.1884 138.515 27.9433 139.155 27.4531C139.827 26.934 140.163 26.1411 140.163 25.0742V19.2783H136.275V15.3856H145.059V25.0742C145.059 26.3718 144.819 27.4819 144.339 28.4046C143.859 29.3274 143.235 30.0915 142.467 30.697C141.667 31.3314 140.771 31.8072 139.779 32.1244C138.819 32.4416 137.843 32.6001 136.851 32.6001C135.859 32.6001 134.867 32.4416 133.875 32.1244C132.915 31.8072 132.051 31.3314 131.283 30.697C130.483 30.0915 129.843 29.3274 129.363 28.4046C128.883 27.4819 128.643 26.3718 128.643 25.0742V8.81114Z" fill="#1A1A1A"/>
<path d="M156.712 32.3406V1.54467H161.608V32.3406H156.712Z" fill="#1A1A1A"/>
<path d="M176.781 32.3406V5.69694H171.117V1.54467H187.341V5.69694H181.677V32.3406H176.781Z" fill="#1A1A1A"/>
<path d="M203.966 21.5707L201.566 10.4115H201.47L199.07 21.5707H203.966ZM191.87 32.3406L199.502 1.54467H203.582L211.214 32.3406H206.318L204.878 25.723H198.206L196.766 32.3406H191.87Z" fill="#1A1A1A"/>
<path d="M220.825 32.3406V1.54467H225.721V27.9289H235.417V32.3406H220.825Z" fill="#1A1A1A"/>
<path d="M251.904 23.0999L248.034 23.7758V23.8028L251.904 24.4786V23.0999ZM255.639 26.5061L244.959 24.357V23.2081L255.639 21.0589V22.4376L253.344 22.8431V24.7219L255.639 25.1274V26.5061Z" fill="#1A1A1A"/>
<path d="M255.639 18.2039H244.959V16.8793L251.394 14.7977V14.7707H244.959V13.392H255.639V14.6896L249.219 16.7982V16.8252H255.639V18.2039Z" fill="#1A1A1A"/>
<path d="M255.639 9.91376H244.959V7.87277C244.959 7.0798 245.199 6.48057 245.679 6.07508C246.159 5.66057 246.839 5.45332 247.719 5.45332H252.714C253.714 5.45332 254.454 5.67409 254.934 6.11562C255.404 6.54815 255.639 7.17442 255.639 7.99442V9.91376ZM246.399 8.53508L254.199 8.53508V7.8998C254.199 7.51233 254.094 7.23749 253.884 7.0753C253.664 6.9131 253.324 6.832 252.864 6.832H247.719C247.299 6.832 246.974 6.90859 246.744 7.06178C246.514 7.21497 246.399 7.49431 246.399 7.8998V8.53508Z" fill="#1A1A1A"/>
<path d="M84.1906 71.989V41.193H88.8946L96.2866 59.7485H96.3826V41.193H101.279V71.989H96.6706L89.1826 53.4768H89.0866V71.989H84.1906Z" fill="#1A1A1A"/>
<path d="M115.263 48.4595C115.263 47.2196 115.503 46.1238 115.983 45.1723C116.463 44.2207 117.103 43.4278 117.903 42.7934C118.671 42.1878 119.535 41.7265 120.495 41.4093C121.487 41.0921 122.479 40.9335 123.471 40.9335C124.463 40.9335 125.439 41.0921 126.399 41.4093C127.391 41.7265 128.287 42.1878 129.087 42.7934C129.855 43.4278 130.479 44.2207 130.959 45.1723C131.439 46.1238 131.679 47.2196 131.679 48.4595V64.7225C131.679 66.0201 131.439 67.1303 130.959 68.053C130.479 68.9757 129.855 69.7398 129.087 70.3454C128.287 70.9798 127.391 71.4555 126.399 71.7727C125.439 72.0899 124.463 72.2485 123.471 72.2485C122.479 72.2485 121.487 72.0899 120.495 71.7727C119.535 71.4555 118.671 70.9798 117.903 70.3454C117.103 69.7398 116.463 68.9757 115.983 68.053C115.503 67.1303 115.263 66.0201 115.263 64.7225V48.4595ZM120.159 64.7225C120.159 65.7894 120.479 66.5824 121.119 67.1014C121.791 67.5916 122.575 67.8367 123.471 67.8367C124.367 67.8367 125.135 67.5916 125.775 67.1014C126.447 66.5824 126.783 65.7894 126.783 64.7225V48.4595C126.783 47.3926 126.447 46.614 125.775 46.1238C125.135 45.6048 124.367 45.3453 123.471 45.3453C122.575 45.3453 121.791 45.6048 121.119 46.1238C120.479 46.614 120.159 47.3926 120.159 48.4595V64.7225Z" fill="#1A1A1A"/>
<path d="M145.828 71.989V41.193H150.532L156.82 57.4993H156.916L163.156 41.193H167.908V71.989H163.012V53.2605H162.916L158.068 66.4959H155.62L150.82 53.2605H150.724V71.989H145.828Z" fill="#1A1A1A"/>
<path d="M192.228 61.2191L189.828 50.0598H189.732L187.332 61.2191H192.228ZM180.132 71.989L187.764 41.193H191.844L199.476 71.989H194.58L193.14 65.3713H186.468L185.028 71.989H180.132Z" fill="#1A1A1A"/>
<path d="M211.727 71.989V41.193H218.975C221.791 41.193 223.919 41.8851 225.359 43.2692C226.831 44.6532 227.567 46.614 227.567 49.1515V63.5547C227.567 66.4382 226.783 68.572 225.215 69.9561C223.679 71.3114 221.455 71.989 218.543 71.989H211.727ZM216.623 45.3453V67.8367H218.879C220.255 67.8367 221.231 67.534 221.807 66.9284C222.383 66.294 222.671 65.3136 222.671 63.9872V49.1515C222.671 47.9405 222.399 47.0033 221.855 46.3401C221.311 45.6769 220.319 45.3453 218.879 45.3453H216.623Z" fill="#1A1A1A"/>
<path d="M257.844 50.0598H252.948V49.065C252.948 48.0558 252.676 47.1907 252.132 46.4699C251.62 45.7201 250.74 45.3453 249.492 45.3453C248.82 45.3453 248.276 45.4606 247.86 45.6913C247.444 45.922 247.108 46.2103 246.852 46.5564C246.596 46.9312 246.42 47.3638 246.324 47.854C246.228 48.3153 246.18 48.8055 246.18 49.3245C246.18 49.9301 246.196 50.4347 246.228 50.8384C246.292 51.2421 246.42 51.6025 246.612 51.9197C246.804 52.2369 247.076 52.5108 247.428 52.7415C247.812 52.9722 248.324 53.2029 248.964 53.4336L252.708 54.7744C253.796 55.1492 254.676 55.5962 255.348 56.1152C256.02 56.6054 256.548 57.1821 256.932 57.8453C257.284 58.5374 257.524 59.3304 257.652 60.2242C257.78 61.0893 257.844 62.0841 257.844 63.2087C257.844 64.5063 257.7 65.7173 257.412 66.8419C257.124 67.9376 256.66 68.8748 256.02 69.6533C255.348 70.4607 254.468 71.0951 253.38 71.5565C252.292 72.0178 250.964 72.2485 249.396 72.2485C248.212 72.2485 247.108 72.0611 246.084 71.6862C245.06 71.3114 244.18 70.7923 243.444 70.1291C242.708 69.4659 242.116 68.7018 241.668 67.8367C241.252 66.9428 241.044 65.9769 241.044 64.9388V63.2952H245.94V64.6793C245.94 65.4867 246.196 66.222 246.708 66.8852C247.252 67.5195 248.148 67.8367 249.396 67.8367C250.228 67.8367 250.868 67.7358 251.316 67.534C251.796 67.3033 252.164 66.9861 252.42 66.5824C252.676 66.1787 252.82 65.7029 252.852 65.1551C252.916 64.5784 252.948 63.944 252.948 63.2519C252.948 62.4446 252.916 61.7813 252.852 61.2623C252.788 60.7433 252.66 60.3252 252.468 60.008C252.244 59.6908 251.94 59.4313 251.556 59.2294C251.204 59.0276 250.724 58.8113 250.116 58.5806L246.612 57.2831C244.5 56.5045 243.076 55.4809 242.34 54.2121C241.636 52.9145 241.284 51.2998 241.284 49.3678C241.284 48.2144 241.46 47.1187 241.812 46.0806C242.164 45.0425 242.692 44.1486 243.396 43.3989C244.068 42.6492 244.916 42.0581 245.94 41.6256C246.996 41.1642 248.244 40.9335 249.684 40.9335C250.9 40.9335 252.004 41.1354 252.996 41.5391C254.02 41.9427 254.9 42.4762 255.636 43.1394C257.108 44.5235 257.844 46.1094 257.844 47.8972V50.0598Z" fill="#1A1A1A"/>
<path d="M19.9003 35.1322H19.8821C19.3757 35.1322 18.9646 35.0242 18.6125 34.7863C18.2677 34.5534 18.0093 34.2156 17.7712 33.8134L17.7248 33.7351V33.644C17.7248 33.182 17.866 32.8087 18.1581 32.5004C18.4353 32.2078 18.8304 31.9936 19.2965 31.7967L19.3353 31.7804L19.3768 31.7742L19.3769 31.7742L19.3776 31.7741L19.3811 31.7735L19.3962 31.7712C19.4099 31.769 19.4306 31.7657 19.4579 31.7611C19.5125 31.752 19.5933 31.7379 19.6965 31.7184C19.903 31.6794 20.1985 31.6189 20.5521 31.5331C21.2608 31.3613 22.1962 31.0898 23.1137 30.6906C24.0349 30.2899 24.9154 29.7701 25.5345 29.1124C26.1462 28.4626 26.4955 27.6882 26.394 26.7456L26.3932 26.738L26.3933 26.738C26.2823 25.4254 25.7779 23.2869 25.0718 20.7935C24.3682 18.3085 23.4718 15.497 22.5888 12.8509C21.7059 10.2053 20.8371 7.72764 20.189 5.91127C19.8649 5.00315 19.5961 4.26048 19.4083 3.74493C19.3144 3.48716 19.2408 3.28617 19.1907 3.14969L19.1335 2.99431L19.1189 2.95471L19.1152 2.94475L19.1143 2.94227L19.1141 2.94166C19.114 2.94153 19.114 2.94147 19.4259 2.82605L19.114 2.94147L19.0933 2.88561V2.82605C19.0933 2.81149 19.0933 2.79691 19.0933 2.78231C19.0931 2.43514 19.0928 2.07829 19.2394 1.76878C19.4046 1.41993 19.7218 1.18446 20.2089 0.978781L20.2709 0.952589H20.3383H20.3409H20.3436H20.3463H20.349H20.3516H20.3543H20.357H20.3596H20.3623H20.365H20.3677H20.3703H20.373H20.3757H20.3783H20.381H20.3837H20.3864H20.389H20.3917H20.3944H20.397H20.3997H20.4024H20.405H20.4077H20.4104H20.413H20.4157H20.4184H20.421H20.4237H20.4263H20.429H20.4317H20.4343H20.437H20.4396H20.4423H20.445H20.4476H20.4503H20.4529H20.4556H20.4582H20.4609H20.4635H20.4662H20.4688H20.4715H20.4741H20.4768H20.4794H20.4821H20.4847H20.4874H20.49H20.4926H20.4953H20.4979H20.5005H20.5032H20.5058H20.5084H20.5111H20.5137H20.5163H20.519H20.5216H20.5242H20.5268H20.5294H20.5321H20.5347H20.5373H20.5399H20.5425H20.5451H20.5477H20.5504H20.553H20.5556H20.5582H20.5608H20.5634H20.566H20.5686H20.5712H20.5738H20.5763H20.5789H20.5815H20.5841H20.5867H20.5893H20.5919H20.5944H20.597H20.5996H20.6022H20.6047H20.6073H20.6099H20.6124H20.615H20.6175H20.6201H20.6227H20.6252H20.6278H20.6303H20.6329H20.6354H20.6379H20.6405H20.643H20.6455H20.6481H20.6506H20.6531H20.6557H20.6582H20.6607H20.6632H20.6657H20.6682H20.6708H20.6733H20.6758H20.6783H20.6808H20.6833H20.6858H20.6883H20.6907H20.6932H20.6957H20.6982H20.7007H20.7031H20.7056H20.7081H20.7105H20.713H20.7155H20.7179H20.7204H20.7228H20.7253H20.7277H20.7302H20.7326H20.735H20.7375H20.7399H20.7423H20.7448H20.7472H20.7496H20.752H20.7544H20.7568H20.7592H20.7616H20.764H20.7664H20.7688H20.7712H20.7736H20.776H20.7783H20.7807H20.7831H20.7854H20.7878H20.7902H20.7925H20.7949H20.7972H20.7996H20.8019H20.8042H20.8066H20.8089H20.8112H20.8135H20.8159H20.8182H20.8205H20.8228H20.8251H20.8274H20.8297H20.832H20.8343H20.8366H20.8388H20.8411H20.8434H20.8456H20.8479H20.8502H20.8524H20.8547H20.8569H20.8592H20.8614H20.8636H20.8659H20.8681H20.8703H20.8725H20.8747H20.8769H20.8792H20.8814H20.8835H20.8857H20.8879H20.8901H20.8923H20.8945H20.8966H20.8988H20.9009H20.9031H20.9052H20.9074H20.9095H20.9117H20.9138H20.9159H20.9181H20.9202H20.9223H20.9244H20.9265H20.9286H20.9307H20.9328H20.9349H20.9369H20.939H20.9411H20.9431H20.9452H20.9472H20.9493H20.9513H20.9534H20.9554H20.9574H20.9595H20.9615H20.9635H20.9655H20.9675H20.9695H20.9715H20.9735H20.9755H20.9774H20.9794H20.9814H20.9833H20.9853H20.9872H20.9892H20.9911H20.993H20.995H20.9969H20.9988H21.0007H21.0026H21.0045H21.0064H21.0083H21.0102H21.0121H21.0139H21.0158H21.0177H21.0195H21.0214H21.0232H21.025H21.0269H21.0287H21.0305H21.0323H21.0341H21.0359H21.0377H21.0395H21.0413H21.0431H21.0448H21.0466H21.0484H21.0501H21.0519H21.0536H21.0553H21.0571H21.0588H21.0605H21.0622H21.0639H21.0656H21.0673H21.069H21.0706H21.0723H21.074H21.0756H21.0773H21.0789H21.0806H21.0822H21.0838H21.0855H21.0871H21.0887H21.0903H21.0919H21.0934H21.095H21.0966H21.0982H21.0997H21.1013H21.1028H21.1044H21.1059H21.1074H21.1089H21.1104H21.112H21.1135H21.1149H21.1164H21.1179H21.1194H21.1208H21.1223H21.1237H21.1252H21.1266H21.128H21.1295H21.1309H21.1323H21.1337H21.1351H21.1365H21.1378H21.1392H21.1406H21.1419H21.1433H21.1446H21.1459H21.1473H21.1486H21.1499H21.1512H21.1525H21.1538H21.1551H21.1563H21.1576H21.1589H21.1601H21.1614H21.1626H21.1638H21.165H21.1662H21.1675H21.1686H21.1698H21.171H21.1722H21.1734H21.1745H21.1757H21.1768H21.1779H21.1791H21.1802H21.1813H21.1824H21.1835H21.1846H21.1857H21.1867H21.1878H21.1888H21.1899H21.1909H21.192H21.193H21.194H21.195H21.196H21.197H21.198H21.1989H21.1999H21.2008H21.2018H21.2027H21.2037H21.2046H21.2055H21.2064H21.2073H21.2082H21.2091H21.2099H21.2108H21.2116H21.2125H21.2133H21.2141H21.215H21.2158H21.2166H21.2174H21.2182H21.2189H21.2197H21.2204H21.2212H21.2219H21.2227H21.2234H21.2241H21.2248H21.2255H21.2262H21.2269H21.2275H21.2282H21.2288H21.2295H21.2301H21.2307H21.2313H21.2319H21.2325H21.2331H21.2337H21.2343H21.2348H21.2354H21.2359H21.2364H21.237H21.2375H21.238H21.2385H21.2389H21.2394H21.2399H21.2403H21.2408H21.2412H21.2416H21.2421H21.2425H21.2429H21.2432H21.2436H21.244H21.2443H21.2447H21.245H21.2454H21.2457H21.246H21.2463H21.2466H21.2469H21.2471H21.2474H21.2476H21.2479H21.2481H21.2483H21.2485H21.2487H21.2489H21.2491H21.2493H21.2494H21.2496H21.2497H21.2498H21.25H21.2501H21.2502H21.2503H21.2503H21.2504H21.2505H21.2505H21.2505H21.2506H21.2506H21.3179L21.38 0.978781C21.4619 1.01336 21.6375 1.08049 21.8922 1.17788C22.972 1.59064 25.4738 2.54703 28.2919 3.87344C31.7748 5.5128 35.8108 7.74748 38.3631 10.2943C41.0995 12.9902 42.4966 14.5576 43.4331 16.1395C44.41 17.7893 44.3898 19.819 43.9294 22.1517L43.9264 22.1668L43.922 22.1817C43.4807 23.6724 43.4907 25.134 43.9125 26.2026L43.9357 26.2615V26.3247C43.9357 26.9808 44.3352 27.6633 44.7301 27.9968C44.9624 28.193 45.1725 28.3696 45.3777 28.4996C45.5839 28.6302 45.7479 28.6887 45.884 28.6887H45.8867H45.8894H45.892H45.8947H45.8974H45.9H45.9027H45.9054H45.9081H45.9107H45.9134H45.9161H45.9188H45.9214H45.9241H45.9268H45.9294H45.9321H45.9348H45.9375H45.9401H45.9428H45.9455H45.9482H45.9508H45.9535H45.9562H45.9588H45.9615H45.9642H45.9669H45.9695H45.9722H45.9749H45.9776H45.9802H45.9829H45.9856H45.9882H45.9909H45.9936H45.9963H45.9989H46.0016H46.0043H46.007H46.0096H46.0123H46.015H46.0176H46.0203H46.023H46.0257H46.0283H46.031H46.0337H46.0364H46.039H46.0417H46.0444H46.0471H46.0497H46.0524H46.0551H46.0577H46.0604H46.0631H46.0658H46.0684H46.0711H46.0738H46.0765H46.0791H46.0818H46.0845H46.0871H46.0898H46.0925H46.0952H46.0978H46.1005H46.1032H46.1059H46.1085H46.1112H46.1139H46.1165H46.1192H46.1219H46.1246H46.1272H46.1299H46.1326H46.1353H46.1379H46.1406H46.1433H46.1459H46.1486H46.1513H46.154H46.1566H46.1593H46.162H46.1647H46.1673H46.17H46.1727H46.1753H46.178H46.1807H46.1834H46.186H46.1887H46.1914H46.1941H46.1967H46.1994H46.2021H46.2048H46.2074H46.2101H46.2128H46.2154H46.2181H46.2208H46.2235H46.2261H46.2288H46.2315H46.2341H46.2368H46.2395H46.2422H46.2448H46.2475H46.2502H46.2529H46.2555H46.2582H46.2609H46.2636H46.2662H46.2689H46.2716H46.2742H46.2769H46.2796H46.2823H46.2849H46.2876H46.2903H46.293H46.2956H46.2983H46.301H46.3036H46.3063H46.309H46.3117H46.3143H46.317H46.3197H46.3224H46.325H46.3277H46.3304H46.333H46.3357H46.3384H46.3411H46.3437H46.3464H46.3491H46.3518H46.3544H46.3571H46.3598H46.3624H46.3651H46.3678H46.3705H46.3731H46.3758H46.3785H46.3812H46.3838H46.3865H46.3892H46.3918H46.3945H46.3972H46.3999H46.4025H46.4052H46.4079H46.4106H46.4132H46.4159H46.4186H46.4212H46.4239H46.4266H46.4293H46.4319H46.4346H46.4373H46.44H46.4426H46.4453H46.448H46.4507H46.4533H46.456H46.4587H46.4613H46.464H46.4667H46.4694H46.472H46.4747H46.4774H46.4801H46.4827H46.4854H46.4881H46.4907H46.4934H46.4961H46.4988H46.5014H46.5041H46.5068H46.5095H46.5121H46.5148H46.5175H46.5201H46.5228H46.5255H46.5282H46.5308H46.5335H46.5362H46.5389H46.5415H46.5442H46.5469H46.5495H46.5522H46.5549H46.5576H46.5602H46.5629H46.5656H46.5683H46.5709H46.5736H46.5763H46.5789H46.5816H46.5843H46.587H46.5896H46.5923H46.595H46.5977H46.6003H46.603H46.6057H46.6083H46.611H46.6137H46.6164H46.619H46.6217H46.6244H46.6271H46.6297H46.6324H46.6351H46.6378H46.6404H46.6431H46.6458H46.6484H46.6511H46.6538H46.6565H46.6591H46.6618H46.6645H46.6672H46.6698H46.6725H46.6752H46.6778H46.6805H46.6832H46.6859H46.6885H46.6912H46.6939H46.6966H46.6992H46.7019H46.7046H46.7072H46.7099H46.7126H46.7153H46.7179H46.7206H46.7233H46.726H46.7286H46.7313H46.734H46.7366H46.7393H46.742H46.7447H46.7473H46.75H46.7527H46.7554H46.758H46.7607H46.7634H46.766H46.7687H46.7714H46.7741H46.7767H46.7794H46.7821H46.7848H46.7874H46.7901H46.7928H46.7955H46.7981H46.8008H46.8035H46.8061H46.8088H46.8115H46.8142H46.8168H46.8195H46.8222H46.8249H46.8275H46.8302H46.8329H46.8355H46.8382H46.8409H46.8436H46.8462H46.8489H46.8516H46.8543H46.8569H46.8596H46.8623H46.8649H46.8676H46.8703H46.873H46.8756H46.8783H46.881H46.8837H46.8863H46.889H46.8917H46.8943H46.897H46.8997H46.9024H46.905H46.9077H46.9104H46.9131H46.9157H46.9184H46.9211H46.9237H46.9264H46.9291H46.9318H46.9344H46.9371H46.9398H46.9425H46.9451H46.9478H46.9505H46.9531H46.9558H46.9585H46.9612H46.9638H46.9665H46.9692H46.9719H46.9745H46.9772H46.9799H46.9826H46.9852H46.9879H46.9906H46.9932H46.9959H46.9986H47.0013H47.0039H47.0066H47.0093H47.012H47.0146H47.0173H47.02H47.0226H47.0253H47.028H47.0307H47.0333H47.036H47.0387H47.0414H47.044H47.0467H47.0494H47.052H47.0547H47.0574H47.0601H47.0627H47.0654H47.0681H47.0708H47.0734H47.0761H47.0788H47.0814H47.0841H47.0868H47.0895H47.0921H47.0948H47.0975H47.1002H47.1028H47.1055H47.1082H47.1108H47.1135H47.1162H47.1189H47.1215H47.1242H47.1269H47.1296H47.1322H47.1349H47.1376H47.1403H47.1429H47.1456H47.1483H47.1509H47.1536H47.1563H47.159H47.1616H47.1643H47.167H47.1697H47.1723H47.175H47.1777H47.1803H47.183H47.1857H47.1871C47.6669 28.4984 48.241 28.4015 48.7701 28.3122L48.7937 28.3082C49.3749 28.21 49.9032 28.119 50.3164 27.9445L50.3356 27.9364L50.3556 27.9307C52.4086 27.3529 54.3788 26.8616 56.1868 26.7631C57.9956 26.6646 59.6695 26.9573 61.1154 27.9692C61.805 28.3584 62.3806 28.7472 62.9449 29.1285L62.9486 29.131C63.5196 29.5167 64.0794 29.8947 64.7503 30.2724L64.7777 30.2878L64.8017 30.3081C65.671 31.0422 66.5396 31.4109 67.4535 31.7967C68.3312 32.1673 69.2134 32.3542 69.8795 32.4479C70.2116 32.4947 70.4879 32.518 70.68 32.5296C70.776 32.5353 70.8508 32.5382 70.901 32.5396C70.9165 32.5401 70.9297 32.5404 70.9404 32.5406C70.9469 32.5407 70.9525 32.5408 70.9572 32.5408L70.9705 32.541L70.9733 32.541H70.9736H70.9737C70.9736 32.541 70.9736 32.541 70.9736 32.8736C71.8859 32.8736 72.3421 33.644 72.3421 34.0292C72.3421 34.4144 72.3421 34.4145 71.886 34.7996L71.8859 34.7997C71.4297 35.1849 67.7803 38.2667 64.131 37.4963L19.9003 35.1322ZM19.9003 35.1322L19.9185 35.1302L19.8821 34.7997C19.9185 35.1302 19.9186 35.1302 19.9188 35.1302L19.9194 35.1301L19.9214 35.1299L19.928 35.1292L19.9525 35.1262C19.9737 35.1236 20.0044 35.1198 20.0441 35.1144C20.1234 35.1036 20.2384 35.087 20.3834 35.0631C20.6733 35.0154 21.0839 34.9386 21.5704 34.8221C22.5413 34.5896 23.8241 34.1965 25.0541 33.5535C26.2823 32.9114 27.4792 32.009 28.2488 30.7474C29.022 29.4801 29.3458 27.8791 28.8778 25.8832C28.6405 23.7208 27.4922 19.5603 26.1874 15.2967C24.9826 11.3597 23.6339 7.30196 22.7147 4.57608C24.4547 5.3135 26.6488 6.26265 28.7973 7.35971C31.241 8.60749 33.5982 10.0331 35.1581 11.5375C35.7297 12.1166 36.2725 12.6473 36.7704 13.1339L36.7942 13.1571C37.2846 13.6363 37.7295 14.0711 38.119 14.4705C38.9161 15.2879 39.4355 15.9136 39.6392 16.4179C40.0712 17.8843 40.0745 18.9785 39.6301 20.855C39.1637 22.8246 39.1588 24.8111 39.6349 26.4192L39.639 26.4332L39.6444 26.4468L39.6596 26.4855C40.1046 27.613 40.5872 28.8359 41.5639 29.6606C42.523 30.4706 43.4821 30.8724 44.8618 31.262C45.8505 31.6739 46.8495 31.6712 47.8381 31.2538C48.2513 31.0793 48.7795 30.9883 49.3607 30.8901L49.3843 30.8861C49.9275 30.7944 50.5183 30.6947 51.0055 30.4941C52.5996 30.1095 54.1635 29.7337 55.4986 29.5928C56.1684 29.5221 56.7654 29.5124 57.2693 29.5852C57.7735 29.658 58.1634 29.8103 58.4423 30.0459L58.4663 30.0661L58.4937 30.0816C59.1646 30.4593 59.7244 30.8373 60.2954 31.223L60.2991 31.2255C60.8674 31.6094 61.447 32.001 62.1431 32.3929L62.1595 32.4022L62.1769 32.4095C62.6201 32.5966 63.1787 32.8795 63.7526 33.1702L63.7608 33.1744C64.3248 33.4602 64.9032 33.7532 65.3701 33.9504L65.4322 33.9766H65.4995C65.6476 33.9766 65.811 34.0402 66.0544 34.143L66.0785 34.1532C66.0938 34.1597 66.1093 34.1662 66.1253 34.1729M19.9003 35.1322L66.1253 34.1729M66.1253 34.1729C65.4534 34.6127 64.8433 34.7395 64.2603 34.4933L64.2411 34.4852L64.2211 34.4796C62.8354 34.0895 60.5426 33.7023 58.2776 33.3197L58.2561 33.3161C57.0995 33.1207 55.9344 33.0215 54.8778 33.071C53.826 33.1204 52.8552 33.3184 52.1073 33.7394L52.0799 33.7549L52.0559 33.7752C51.6246 34.1393 49.8224 35.3789 47.3189 36.7723C44.8211 38.1625 41.651 39.6913 38.4892 40.6449L38.4805 40.6475L38.472 40.6506C35.3202 41.7913 31.7449 42.1593 29.0957 41.4136L29.0851 41.4106L29.0743 41.4083C28.1935 41.2224 27.1916 40.8476 26.1069 40.4137C25.886 40.3253 25.6617 40.2346 25.4348 40.1427C24.56 39.7886 23.6462 39.4186 22.7338 39.1101L22.729 39.1082C18.8609 37.571 14.9677 36.0238 11.4121 35.1037C7.86132 34.1848 4.58212 33.8726 1.97213 34.8744L1.97206 34.8743L1.96194 34.8785C1.50943 35.0696 1.0826 35.2921 0.850831 35.6183C0.72545 35.7947 0.657666 35.9997 0.668572 36.2299C0.6791 36.4521 0.761691 36.6738 0.892793 36.8952C1.12585 37.2889 1.39449 37.6508 1.76992 37.8411C2.16992 38.0437 2.61981 38.0193 3.13301 37.8026C3.97526 37.447 5.05443 37.3484 6.33904 37.4604C7.62062 37.5722 9.08032 37.891 10.667 38.3456C13.1701 39.0628 15.9539 40.1068 18.8127 41.179C19.5828 41.4678 20.3584 41.7586 21.1353 42.0457L21.1353 42.0458L21.1442 42.0488L24.5655 43.2045L27.9753 44.3563L66.1253 34.1729Z" fill="#1A1A1A" stroke="#1A1A1A" stroke-width="0.665134"/>
</svg>
