<svg width="176" height="11" viewBox="0 0 176 11" fill="none" xmlns="http://www.w3.org/2000/svg">
<path d="M1.12222 9V2.5665H3.80435C4.08827 2.5665 4.34803 2.62691 4.58362 2.74773C4.81922 2.8625 5.02461 3.01957 5.19979 3.21891C5.37497 3.41222 5.51089 3.63271 5.60755 3.88039C5.7042 4.12202 5.75253 4.36969 5.75253 4.62341C5.75253 4.97378 5.674 5.30904 5.51693 5.62921C5.35987 5.94333 5.13938 6.20007 4.85546 6.39942C4.57154 6.59272 4.2393 6.68938 3.85872 6.68938H1.93773V9H1.12222ZM1.93773 5.96448H3.81342C4.03693 5.96448 4.23023 5.90407 4.39334 5.78325C4.56248 5.66243 4.69236 5.49933 4.78297 5.29394C4.87962 5.08855 4.92795 4.86504 4.92795 4.62341C4.92795 4.36969 4.87358 4.14316 4.76485 3.94381C4.65611 3.73843 4.51415 3.57834 4.33897 3.46357C4.16378 3.34879 3.97048 3.2914 3.75905 3.2914H1.93773V5.96448ZM8.76129 9V2.5665H9.57681V8.2751H13.1651V9H8.76129ZM18.0036 2.5665H18.6923L21.3201 9H20.4502L19.689 7.11526H16.9888L16.2367 9H15.3668L18.0036 2.5665ZM19.5078 6.48097L18.348 3.50887L17.1519 6.48097H19.5078ZM23.5164 5.73794C23.5164 5.34529 23.5829 4.9617 23.7158 4.58716C23.8547 4.20659 24.0541 3.86226 24.3138 3.55418C24.5796 3.24006 24.9028 2.99238 25.2834 2.81116C25.6639 2.62389 26.0959 2.53026 26.5791 2.53026C27.153 2.53026 27.6453 2.66316 28.0561 2.92895C28.4669 3.18871 28.772 3.52398 28.9713 3.93475L28.328 4.35157C28.2011 4.07973 28.038 3.86528 27.8387 3.70822C27.6453 3.54512 27.4339 3.43034 27.2044 3.36389C26.9809 3.29744 26.7604 3.26422 26.5429 3.26422C26.1865 3.26422 25.8693 3.33671 25.5915 3.48169C25.3196 3.62667 25.0901 3.81998 24.9028 4.06161C24.7155 4.30324 24.5736 4.57508 24.4769 4.87712C24.3863 5.17313 24.341 5.47215 24.341 5.77419C24.341 6.10644 24.3954 6.4266 24.5041 6.73468C24.6189 7.04277 24.7759 7.3146 24.9753 7.5502C25.1746 7.78579 25.4102 7.97306 25.6821 8.112C25.9539 8.25094 26.2499 8.32041 26.5701 8.32041C26.7936 8.32041 27.0231 8.28114 27.2587 8.20261C27.4943 8.12408 27.7148 8.00326 27.9202 7.84016C28.1256 7.67101 28.2887 7.45354 28.4095 7.18775L29.0891 7.55926C28.9562 7.87942 28.7508 8.15126 28.4729 8.37477C28.1951 8.59828 27.884 8.76743 27.5396 8.8822C27.2013 8.99698 26.8661 9.05437 26.5338 9.05437C26.0928 9.05437 25.6881 8.96073 25.3196 8.77347C24.9511 8.58016 24.631 8.32645 24.3591 8.01232C24.0933 7.69216 23.8849 7.33575 23.7339 6.94309C23.5889 6.5444 23.5164 6.14268 23.5164 5.73794ZM36.4708 8.2751V9H32.1033V2.5665H36.3892V3.2914H32.9188V5.37549H35.9362V6.05509H32.9188V8.2751H36.4708ZM43.3616 3.91663C43.2106 3.74749 42.978 3.59344 42.6639 3.45451C42.3497 3.31557 41.9994 3.2461 41.6128 3.2461C41.1174 3.2461 40.7519 3.33973 40.5164 3.527C40.2808 3.71426 40.163 3.971 40.163 4.2972C40.163 4.52676 40.2234 4.70798 40.3442 4.84088C40.465 4.97378 40.6493 5.08251 40.8969 5.16708C41.1506 5.25166 41.4708 5.33925 41.8574 5.42986C42.3044 5.52651 42.6911 5.64431 43.0173 5.78325C43.3435 5.92219 43.5942 6.10946 43.7693 6.34505C43.9445 6.5746 44.0321 6.88268 44.0321 7.2693C44.0321 7.68008 43.9294 8.01836 43.724 8.28416C43.5187 8.54996 43.2378 8.74628 42.8813 8.87314C42.531 9 42.1353 9.06343 41.6943 9.06343C40.6915 9.06343 39.8186 8.76139 39.0756 8.1573L39.4652 7.46865C39.5981 7.60154 39.7764 7.73444 39.9999 7.86734C40.2294 8.00024 40.4892 8.112 40.7791 8.20261C41.0751 8.28718 41.3862 8.32947 41.7124 8.32947C42.1715 8.32947 42.528 8.24791 42.7817 8.08481C43.0354 7.91567 43.1622 7.67101 43.1622 7.35085C43.1622 7.10922 43.0898 6.91591 42.9448 6.77093C42.8058 6.62595 42.5974 6.50513 42.3195 6.40848C42.0417 6.31182 41.7034 6.21517 41.3047 6.11852C40.8697 6.00978 40.5043 5.89199 40.2083 5.76513C39.9123 5.63223 39.6888 5.46007 39.5377 5.24864C39.3928 5.03721 39.3203 4.76235 39.3203 4.42406C39.3203 4.01328 39.4199 3.66594 39.6193 3.38202C39.8186 3.0981 40.0935 2.88365 40.4439 2.73867C40.7942 2.59369 41.1899 2.5212 41.6309 2.5212C42.0598 2.5212 42.4494 2.58764 42.7998 2.72054C43.1562 2.85344 43.4703 3.03165 43.7422 3.25516L43.3616 3.91663ZM51.3836 9V2.5665H55.6333V3.2914H52.1991V5.43892H55.0896V6.11852H52.1991V9H51.3836ZM61.1544 9.04531C60.7014 9.04531 60.2906 8.95469 59.9221 8.77347C59.5536 8.59224 59.2335 8.34759 58.9616 8.03951C58.6958 7.72538 58.4904 7.37501 58.3455 6.9884C58.2005 6.59574 58.128 6.19403 58.128 5.78325C58.128 5.35435 58.2035 4.94659 58.3545 4.55998C58.5116 4.16733 58.726 3.81998 58.9979 3.51793C59.2757 3.20985 59.5989 2.96822 59.9674 2.79303C60.3359 2.61181 60.7376 2.5212 61.1726 2.5212C61.6256 2.5212 62.0364 2.61483 62.4049 2.80209C62.7734 2.98936 63.0905 3.24006 63.3563 3.55418C63.6221 3.8683 63.8275 4.21867 63.9725 4.60529C64.1175 4.9919 64.19 5.38758 64.19 5.79231C64.19 6.22121 64.1145 6.63199 63.9634 7.02464C63.8124 7.41126 63.598 7.75861 63.3201 8.06669C63.0482 8.36873 62.7281 8.60735 62.3596 8.78253C61.9911 8.95771 61.5894 9.04531 61.1544 9.04531ZM58.9526 5.78325C58.9526 6.10946 59.0039 6.4266 59.1066 6.73468C59.2153 7.03673 59.3664 7.30554 59.5597 7.54114C59.753 7.77673 59.9855 7.964 60.2574 8.10293C60.5292 8.24187 60.8313 8.31134 61.1635 8.31134C61.5078 8.31134 61.8159 8.23885 62.0878 8.09387C62.3596 7.94889 62.5891 7.75559 62.7764 7.51395C62.9697 7.27232 63.1147 7.00048 63.2114 6.69844C63.314 6.3964 63.3654 6.09133 63.3654 5.78325C63.3654 5.45705 63.311 5.14292 63.2023 4.84088C63.0996 4.53884 62.9486 4.27002 62.7492 4.03443C62.5559 3.79279 62.3233 3.60553 62.0515 3.47263C61.7857 3.33369 61.4897 3.26422 61.1635 3.26422C60.8192 3.26422 60.5111 3.33671 60.2393 3.48169C59.9674 3.62063 59.7348 3.81092 59.5415 4.05255C59.3543 4.29418 59.2093 4.56602 59.1066 4.86806C59.0039 5.16406 58.9526 5.46913 58.9526 5.78325ZM71.7524 3.2914H69.5324V9H68.7168V3.2914H66.4968V2.5665H71.7524V3.2914ZM78.6835 9V2.5665H80.9125C81.6012 2.5665 82.1751 2.71148 82.6342 3.00144C83.0993 3.28536 83.4467 3.67198 83.6762 4.16128C83.9058 4.64455 84.0205 5.18219 84.0205 5.77419C84.0205 6.4266 83.8937 6.99444 83.64 7.47771C83.3863 7.96097 83.0268 8.33551 82.5617 8.6013C82.0965 8.8671 81.5468 9 80.9125 9H78.6835ZM83.196 5.77419C83.196 5.29092 83.1054 4.86202 82.9241 4.48749C82.7489 4.11296 82.4922 3.81998 82.1539 3.60855C81.8156 3.39712 81.4018 3.2914 80.9125 3.2914H79.499V8.2751H80.9125C81.4079 8.2751 81.8247 8.16636 82.163 7.94889C82.5013 7.72538 82.758 7.42636 82.9332 7.05183C83.1084 6.67125 83.196 6.24538 83.196 5.77419ZM87.1632 9V2.5665H87.9787V9H87.1632ZM94.0929 9.04531C93.6701 9.04531 93.2744 8.95469 92.9059 8.77347C92.5434 8.5862 92.2263 8.33853 91.9545 8.03044C91.6826 7.71632 91.4712 7.36595 91.3202 6.97934C91.1692 6.58668 91.0936 6.18195 91.0936 5.76513C91.0936 5.33019 91.1692 4.91941 91.3202 4.5328C91.4712 4.14014 91.6796 3.79279 91.9454 3.49075C92.2172 3.18871 92.5344 2.95312 92.8968 2.78397C93.2653 2.60879 93.664 2.5212 94.0929 2.5212C94.7151 2.5212 95.2286 2.65107 95.6333 2.91083C96.0381 3.17059 96.3431 3.50887 96.5485 3.92569L95.9233 4.36063C95.736 3.9861 95.4793 3.70822 95.1531 3.527C94.8269 3.34577 94.4675 3.25516 94.0748 3.25516C93.7486 3.25516 93.4526 3.32463 93.1868 3.46357C92.921 3.60251 92.6914 3.79279 92.4981 4.03443C92.3109 4.27002 92.1659 4.53884 92.0632 4.84088C91.9665 5.14292 91.9182 5.45705 91.9182 5.78325C91.9182 6.24235 92.0149 6.66521 92.2082 7.05183C92.4075 7.4324 92.6763 7.73746 93.0146 7.96702C93.3529 8.19657 93.7335 8.31134 94.1564 8.31134C94.5007 8.31134 94.8299 8.22979 95.144 8.06669C95.4642 7.89755 95.7662 7.64081 96.0502 7.29648V6.40848H94.6638V5.79231H96.7388V9H96.0502V8.13012C95.4944 8.74024 94.842 9.04531 94.0929 9.04531ZM104.541 3.2914H102.321V9H101.506V3.2914H99.2855V2.5665H104.541V3.2914ZM108.808 2.5665H109.496L112.124 9H111.254L110.493 7.11526H107.793L107.041 9H106.171L108.808 2.5665ZM110.312 6.48097L109.152 3.50887L107.956 6.48097H110.312ZM114.976 9V2.5665H115.792V8.2751H119.38V9H114.976ZM127.088 4.07067V9H126.272V2.5665H126.961L130.894 7.5955V2.57556H131.709V9H130.966L127.088 4.07067ZM137.849 9.04531C137.395 9.04531 136.985 8.95469 136.616 8.77347C136.248 8.59224 135.928 8.34759 135.656 8.03951C135.39 7.72538 135.184 7.37501 135.04 6.9884C134.895 6.59574 134.822 6.19403 134.822 5.78325C134.822 5.35435 134.898 4.94659 135.049 4.55998C135.206 4.16733 135.42 3.81998 135.692 3.51793C135.97 3.20985 136.293 2.96822 136.661 2.79303C137.03 2.61181 137.432 2.5212 137.867 2.5212C138.32 2.5212 138.73 2.61483 139.099 2.80209C139.467 2.98936 139.785 3.24006 140.05 3.55418C140.316 3.8683 140.522 4.21867 140.667 4.60529C140.812 4.9919 140.884 5.38758 140.884 5.79231C140.884 6.22121 140.809 6.63199 140.658 7.02464C140.506 7.41126 140.292 7.75861 140.014 8.06669C139.742 8.36873 139.422 8.60735 139.054 8.78253C138.685 8.95771 138.283 9.04531 137.849 9.04531ZM135.647 5.78325C135.647 6.10946 135.698 6.4266 135.801 6.73468C135.909 7.03673 136.06 7.30554 136.254 7.54114C136.447 7.77673 136.68 7.964 136.951 8.10293C137.223 8.24187 137.525 8.31134 137.858 8.31134C138.202 8.31134 138.51 8.23885 138.782 8.09387C139.054 7.94889 139.283 7.75559 139.47 7.51395C139.664 7.27232 139.809 7.00048 139.905 6.69844C140.008 6.3964 140.059 6.09133 140.059 5.78325C140.059 5.45705 140.005 5.14292 139.896 4.84088C139.794 4.53884 139.643 4.27002 139.443 4.03443C139.25 3.79279 139.017 3.60553 138.746 3.47263C138.48 3.33369 138.184 3.26422 137.858 3.26422C137.513 3.26422 137.205 3.33671 136.933 3.48169C136.661 3.62063 136.429 3.81092 136.236 4.05255C136.048 4.29418 135.903 4.56602 135.801 4.86806C135.698 5.16406 135.647 5.46913 135.647 5.78325ZM149.574 9V4.08879L147.454 7.86734H146.956L144.826 4.08879V9H144.011V2.5665H144.871L147.2 6.74374L149.538 2.5665H150.39V9H149.574ZM155.881 2.5665H156.57L159.197 9H158.328L157.566 7.11526H154.866L154.114 9H153.244L155.881 2.5665ZM157.385 6.48097L156.225 3.50887L155.029 6.48097H157.385ZM162.05 9V2.5665H164.279C164.967 2.5665 165.541 2.71148 166 3.00144C166.465 3.28536 166.813 3.67198 167.042 4.16128C167.272 4.64455 167.387 5.18219 167.387 5.77419C167.387 6.4266 167.26 6.99444 167.006 7.47771C166.752 7.96097 166.393 8.33551 165.928 8.6013C165.463 8.8671 164.913 9 164.279 9H162.05ZM166.562 5.77419C166.562 5.29092 166.471 4.86202 166.29 4.48749C166.115 4.11296 165.858 3.81998 165.52 3.60855C165.182 3.39712 164.768 3.2914 164.279 3.2914H162.865V8.2751H164.279C164.774 8.2751 165.191 8.16636 165.529 7.94889C165.867 7.72538 166.124 7.42636 166.299 7.05183C166.474 6.67125 166.562 6.24538 166.562 5.77419ZM174.308 3.91663C174.157 3.74749 173.924 3.59344 173.61 3.45451C173.296 3.31557 172.946 3.2461 172.559 3.2461C172.064 3.2461 171.698 3.33973 171.463 3.527C171.227 3.71426 171.109 3.971 171.109 4.2972C171.109 4.52676 171.17 4.70798 171.29 4.84088C171.411 4.97378 171.596 5.08251 171.843 5.16708C172.097 5.25166 172.417 5.33925 172.804 5.42986C173.251 5.52651 173.637 5.64431 173.964 5.78325C174.29 5.92219 174.54 6.10946 174.716 6.34505C174.891 6.5746 174.978 6.88268 174.978 7.2693C174.978 7.68008 174.876 8.01836 174.67 8.28416C174.465 8.54996 174.184 8.74628 173.828 8.87314C173.477 9 173.082 9.06343 172.641 9.06343C171.638 9.06343 170.765 8.76139 170.022 8.1573L170.412 7.46865C170.544 7.60154 170.723 7.73444 170.946 7.86734C171.176 8.00024 171.435 8.112 171.725 8.20261C172.021 8.28718 172.332 8.32947 172.659 8.32947C173.118 8.32947 173.474 8.24791 173.728 8.08481C173.982 7.91567 174.109 7.67101 174.109 7.35085C174.109 7.10922 174.036 6.91591 173.891 6.77093C173.752 6.62595 173.544 6.50513 173.266 6.40848C172.988 6.31182 172.65 6.21517 172.251 6.11852C171.816 6.00978 171.451 5.89199 171.155 5.76513C170.859 5.63223 170.635 5.46007 170.484 5.24864C170.339 5.03721 170.267 4.76235 170.267 4.42406C170.267 4.01328 170.366 3.66594 170.566 3.38202C170.765 3.0981 171.04 2.88365 171.39 2.73867C171.74 2.59369 172.136 2.5212 172.577 2.5212C173.006 2.5212 173.396 2.58764 173.746 2.72054C174.102 2.85344 174.417 3.03165 174.688 3.25516L174.308 3.91663Z" fill="#1A1A1A"/>
</svg>
